<?xml version="1.0" encoding="UTF-8"?>
<svg id="Layer_1" data-name="Layer 1" xmlns="http://www.w3.org/2000/svg" viewBox="0 0 223.18 249.69">
  <defs>
    
  </defs>
  <path class="cls-1" d="M98.65,169.26h0c0,36.53,39.54,59.35,71.16,41.09h0c11.94-6.89,19.3-19.63,19.3-33.42v-59.24c0-9.08,4.84-17.46,12.69-21.99h0c9.5-5.49,21.37,1.37,21.37,12.34v76.74c0,3.82-2.04,7.35-5.35,9.27h0c-5.19,2.99-11.68-.75-11.68-6.75v-56.13c0-1.13-1.21-1.83-2.19-1.26h0c-.73,.42-1.17,1.2-1.17,2.04v39.29c0,19.49-10.4,37.51-27.29,47.26l-47.08,27.18c-9.29,5.36-20.72,5.36-30.01,0L15,197.51c-9.29-5.36-15-15.26-15-25.99V77.93c0-10.72,5.72-20.63,15-25.99L98.01,4.02c9.29-5.36,20.72-5.36,30.01,0l64.16,37.04c8.18,4.73,8.18,16.54,0,21.26l-47.68,27.53c-28.36,16.38-45.84,46.64-45.84,79.4h0Z"></path>
</svg>