<?xml version="1.0" encoding="UTF-8"?>
<svg id="Layer_1" data-name="Layer 1" xmlns="http://www.w3.org/2000/svg" viewBox="0 0 796.54 88.36">
  <defs>
    
  </defs>
  <path class="cls-1" d="M796.54,49.99c-1.31,.35-2.59,.82-3.92,1.02-2.29,.33-4.56-.01-6.65-.99-2.35-1.09-4.61-2.36-6.91-3.54-3.2-1.63-6.34-3.4-9.62-4.84-3.6-1.58-7.51-2.34-11.45-2.29-4.22,.06-8.45,.17-12.64,.55-6.05,.55-12.08,.42-18.02-.66-10.44-1.9-20.39-.47-30,3.83-3.73,1.67-7.42,3.42-11.12,5.14-4.13,1.92-8.26,3.82-12.72,4.91-5.12,1.24-10.51,.5-15.23-1.83-2.79-1.38-5.51-2.94-8.16-4.58-5.52-3.4-10.95-6.96-16.94-9.51-5.41-2.31-11.01-3.84-16.92-4.02-7.65-.23-14.74,1.84-21.51,5.21-5.13,2.55-9.81,5.81-14.34,9.29-1.49,1.14-3,2.27-4.55,3.32-1.96,1.33-4.56,1.25-6.46-.16-1.58-1.18-3.05-2.49-4.59-3.73-2.32-1.87-4.58-3.83-7.01-5.55-1.52-1.08-3.22-1.97-4.93-2.73-5.08-2.24-10.93-2.31-15.95,.07-2.52,1.19-4.87,2.75-7.21,4.27-2.45,1.59-4.76,3.38-7.18,4.99-5.74,3.82-12.11,4.94-18.8,3.83-6.64-1.11-13.23-2.57-19.83-3.91-11.29-2.28-22.66-3.68-34.2-3.07-3.24,.17-6.46,.55-9.69,.86-.7,.07-1.38,.23-2.26,.39v38.47c0,.94-.76,1.7-1.7,1.7h-2.06c-.89,0-1.61-.72-1.61-1.61v-16.15l-.35-.11c-.23,.32-.5,.63-.7,.97-6.42,11.41-16.32,17.39-29.22,18.6-8.18,.77-16.06-.43-23.42-4.18-10.57-5.37-17-14.13-20.28-25.35-1.33-4.57-1.91-9.25-1.96-14.01,0-.77,0-1.54,0-2.4-.6-.16-1.08-.36-1.58-.42-12.63-1.44-25.27-2.81-38.02-2.38-7.29,.25-14.41,1.61-21.49,3.26-4.86,1.13-9.72,2.29-14.64,3.03-3.83,.57-7.74,.56-11.63,.73-3.17,.14-6.35,.14-9.52,.28-3.43,.15-6.61,1.24-9.66,2.74-2.03,1.01-4.03,2.09-6.09,3.03-10.23,4.67-21.74,.96-27.4-8.81-.29-.5-.59-.99-.95-1.6-.45,.23-.86,.38-1.21,.62-2.41,1.7-5.1,2.44-8.02,2.59-5.01,.27-9.79-.82-14.54-2.19-5.29-1.53-10.54-3.19-15.86-4.64-4.59-1.25-9.28-1.8-14.05-1.49-3.93,.25-7.71,1.13-11.3,2.67-3.33,1.43-6.6,3.02-9.83,4.66-4.58,2.31-9.16,4.59-14.13,5.96-5.82,1.6-11.76,1.85-17.75,1.73-11.16-.22-22.26-1.3-33.36-2.35-6.52-.62-13.04-1.15-19.57-1.72-4.71-.41-9.43-.85-14.15-1.2-8.94-.66-17.72,.4-26.39,2.63-2.57,.66-5.2,1.13-7.83,1.49-2.08,.29-4.21,.07-6.17-.69-1.03-.4-.91-.11-1.3-1.35,.33,0,.65-.07,.92,.01,3.92,1.24,7.81,.9,11.7-.14,4.69-1.26,9.41-2.38,14.24-3.05,6.85-.94,13.71-1.01,20.57-.44,7.3,.6,14.58,1.4,21.87,2.14,6.71,.69,13.4,1.48,20.11,2.12,8.53,.81,17.08,1.32,25.66,.99,6.73-.26,13.33-2,19.38-4.96,3.45-1.69,6.86-3.47,10.3-5.2,4.19-2.11,8.52-3.82,13.17-4.59,6.05-1,12.04-.56,17.93,1,5.38,1.43,10.7,3.12,16.05,4.67,3.8,1.1,7.64,2.05,11.62,2.24,2.42,.12,4.81-.05,7.08-.94,.9-.35,1.75-.85,2.57-1.36,1.13-.7,1.72-1.6,1.35-3.08-.26-1.04-.15-2.19-.07-3.29,.05-.62,.26-1.29,.59-1.82,.72-1.15,1.95-1.1,2.62,.11,.27,.49,.5,1.12,.45,1.66-.12,1.27-.18,2.64-.7,3.76-.64,1.37-.42,2.43,.21,3.66,4.47,8.68,15.21,12.76,24.24,9.12,1.92-.77,3.79-1.7,5.6-2.71,5.06-2.84,10.5-4.01,16.24-4,.97,0,1.95-.04,2.92,0,8.63,.39,17.06-.85,25.4-3,5.84-1.5,11.72-2.78,17.73-3.48,6.66-.77,13.33-.83,20.01-.44,6.34,.37,12.67,.9,19.01,1.38,2,.15,4,.36,6,.55,1.77,.17,1.82,.13,2.02-1.67,.78-6.98,2.77-13.58,6.54-19.55,6.48-10.26,15.81-16.24,27.79-17.96,9.12-1.31,18.01-.4,26.39,3.63,9.95,4.79,16.26,12.62,19.4,22.98,.37,1.22-.36,2.21-1.63,2.21h-.81s-1.73,0-1.73,0c-.73,0-1.38-.47-1.61-1.16s-.47-1.38-.72-2.05c-3.92-10.18-11.26-16.59-21.73-19.39-8.31-2.22-16.6-2.01-24.6,1.3-9.56,3.96-15.67,11.21-19.08,20.86-1.17,3.31-1.86,6.74-2.2,10.23-.04,.37,0,.75,0,1.34,1.4,.21,2.73,.43,4.06,.59,7.55,.93,15.14,.85,22.73,.82,11.09-.04,22.18-.04,33.27-.11,7.33-.05,14.65-.17,21.98-.29,10.02-.16,19.94,.63,29.75,2.83,8.54,1.91,17.1,3.71,25.68,5.46,2.37,.48,4.81,.74,7.24,.86,4.34,.2,8.68-.76,12.42-2.97,2.9-1.71,5.56-3.8,8.38-5.65,2.33-1.53,4.64-3.13,7.12-4.37,6.39-3.2,12.87-3.07,19.29,.03,3.53,1.71,6.61,4.08,9.57,6.62,1.79,1.53,3.53,3.12,5.39,4.57,1.75,1.36,4.2,1.4,6.01,.12,2.66-1.89,5.22-3.92,7.86-5.84,4.53-3.28,9.34-6.09,14.51-8.23,11.56-4.79,23.09-4.6,34.62,.14,5.24,2.15,10.1,5.01,14.9,7.97,3.59,2.21,7.18,4.42,10.88,6.41,3.35,1.8,7.02,2.88,10.86,2.45,2.62-.29,5.27-.85,7.74-1.76,3.64-1.33,7.14-3.07,10.7-4.63,4.33-1.89,8.63-3.89,13.02-5.65,8.28-3.32,16.88-3.96,25.62-2.5,7.75,1.3,15.49,1.28,23.26,.43,10.04-1.1,19.51,.49,28.19,5.9,2.2,1.37,4.48,2.61,6.78,3.8,2.26,1.17,4.65,2.01,7.27,1.8,1.71-.13,3.32-.54,4.67-1.68v2.33Zm-433.83-6.79c-.06,.82-.13,1.32-.13,1.83,.01,6.3,1.23,12.37,3.89,18.09,3.89,8.36,10.05,14.38,18.75,17.62,6.01,2.24,12.24,2.8,18.56,1.82,6.34-.99,12.06-3.44,16.93-7.7,6.44-5.64,9.9-12.85,11.12-21.21,.29-1.95,.72-3.93,.22-6.02-2.24,0-4.39-.09-6.54,.07-8.69,.66-17.43,.45-26.13-.07-6.35-.38-12.71-.72-19.03-1.38-4.37-.45-8.67-1.53-13.01-2.31-1.46-.26-2.93-.47-4.64-.74Z"></path>
</svg>